<svg xmlns="http://www.w3.org/2000/svg" viewBox="0 0 128 128" role="img" aria-labelledby="lilac-3d-title lilac-3d-desc">
  <title id="lilac-3d-title">Lilac the playful cat — dimensional vector illustration</title>
  <desc id="lilac-3d-desc">A lavender cat with a folded ear, one winking eye and a tiny pink tongue, sculpted as a rounded clay figurine in three-quarter view. Original reusable SVG illustration authored by Codex with shaded vector paths, a transparent background and a soft contact shadow; not a rendered 3D model.</desc>
  <defs>
    <radialGradient id="lilac-3d-clay" cx="30%" cy="20%" r="86%">
      <stop stop-color="#EADDFA"/><stop offset=".53" stop-color="#BBA0DC"/><stop offset="1" stop-color="#79619F"/>
    </radialGradient>
    <linearGradient id="lilac-3d-side" x1="0" y1="0" x2="1" y2="1">
      <stop stop-color="#BBA0DC"/><stop offset="1" stop-color="#79619F"/>
    </linearGradient>
    <radialGradient id="lilac-3d-cream" cx="32%" cy="18%" r="94%">
      <stop stop-color="#EDE1FB"/><stop offset=".65" stop-color="#EDE1FB"/><stop offset="1" stop-color="#B6A0D0"/>
    </radialGradient>
    <radialGradient id="lilac-3d-shadow"><stop stop-color="#262033" stop-opacity=".28"/><stop offset="1" stop-color="#262033" stop-opacity="0"/></radialGradient>
  </defs>
  <ellipse cx="66" cy="117" rx="49" ry="9" fill="url(#lilac-3d-shadow)"/>
  <!-- Tail and far ear sit behind the sculpted body and head. -->
  <path d="M89 107c18 3 23-6 21-17-1-6-6-8-7-4-2 4 5 9 0 12-3 2-7 0-10-2" fill="none" stroke="#79619F" stroke-width="11" stroke-linecap="round"/>
  <path d="M91 103c13 3 19-3 16-13" fill="none" stroke="#BBA0DC" stroke-width="6" stroke-linecap="round"/>
  <path d="M45 77c-12 8-15 27-8 34 8 9 41 10 53 1 8-6 6-23-3-32Z" fill="url(#lilac-3d-clay)" stroke="#715690" stroke-opacity=".5" stroke-width="1.2"/>
  <path d="M53 83c-5 8-8 18-4 26 4 7 21 9 29 2 5-4 6-14 4-22Z" fill="url(#lilac-3d-cream)"/>
  <ellipse cx="62" cy="84" rx="24" ry="7" fill="#79619F" opacity=".2"/>
  <ellipse cx="81" cy="112" rx="12" ry="7" fill="url(#lilac-3d-clay)"/>
  <ellipse cx="46" cy="111" rx="15" ry="9" fill="url(#lilac-3d-clay)"/>
  <path d="M41 112v4m6-4v4m32-3v3" stroke="#715690" stroke-width="1.3" stroke-linecap="round" opacity=".65"/>
  <path d="m77 31 18-17q4-3 6 3l7 17-13 1 5 11Z" fill="url(#lilac-3d-side)" stroke="#715690" stroke-width="1.3"/><path d="m88 30 10-10 4 9-8 3Z" fill="#DEB5D7"/><path d="m95 35 7-2" stroke="#715690" stroke-width="1.5"/>
  <path d="m28 46 2-29q1-7 6-3l21 22Z" fill="url(#lilac-3d-clay)" stroke="#715690" stroke-width="1.2"/>
  <path d="m35 24-1 18 14-5Z" fill="#DEB5D7"/>
  <path d="M26 49c2-16 18-23 38-22 22 0 35 8 40 25 3 11 1 23-8 30-8 7-22 11-38 8-22-3-37-19-32-41Z" fill="url(#lilac-3d-clay)" stroke="#715690" stroke-width="1.15"/>
  <path d="M31 48c4-11 13-15 23-16" fill="none" stroke="#EADDFA" stroke-opacity=".65" stroke-width="3" stroke-linecap="round"/>
  <path d="m55 30 6 14 6-8 7 5 1-12c-7-2-14-2-20 1Z" fill="#9478B7"/>
  <!-- Paired rounded muzzle lobes are offset and unequal for a three-quarter face. -->
  <ellipse cx="67" cy="75" rx="17" ry="11.5" fill="url(#lilac-3d-cream)"/>
  <ellipse cx="86" cy="73.5" rx="12.5" ry="10" fill="url(#lilac-3d-cream)"/>
  <ellipse cx="55" cy="59" rx="4.6" ry="6.1" fill="#352B44"/><circle cx="53.8" cy="56.9" r="1.5" fill="#FFF8FF"/><path d="m82 60 5-3 5 2" fill="none" stroke="#352B44" stroke-width="3" stroke-linecap="round"/>
  <ellipse cx="42" cy="71" rx="7" ry="3" fill="#DEB5D7" opacity=".42"/>
  <path d="M71 71q4-2 8-1l-3 5q-1 1-2 0Z" fill="#80546D"/>
  <path d="M73 70.5h3" stroke="#FFFFFF" stroke-opacity=".4" stroke-width="1.1" stroke-linecap="round"/>
  <path d="M75 76v3m0 0q-4 4-8 0m8 0q4 3 7-1" fill="none" stroke="#59414F" stroke-width="1.5" stroke-linecap="round"/>
  <path d="M74 80h6v3a3 3 0 0 1-6 0Z" fill="#DF91B4" stroke="#8C597A" stroke-width=".7"/>
  <g stroke="#715690" stroke-width="1.1" stroke-linecap="round" opacity=".7"><path d="m47 75-8-1m8 5-7 2m58-8 5-2m-5 6 5 1"/></g>
</svg>
